<?xml version="1.0" standalone="no"?>
<!DOCTYPE svg PUBLIC "-//W3C//DTD SVG 20010904//EN"
 "http://www.w3.org/TR/2001/REC-SVG-20010904/DTD/svg10.dtd">
<svg version="1.0" xmlns="http://www.w3.org/2000/svg"
 width="60.000000pt" height="60.000000pt" viewBox="0 0 60.000000 60.000000"
 preserveAspectRatio="xMidYMid meet">

<g transform="translate(0.000000,60.000000) scale(0.100000,-0.100000)"
fill="#000000" stroke="none">
<path d="M232 588 c-13 -17 -24 -72 -25 -133 -2 -38 1 -50 13 -50 10 0 17 15
22 45 3 25 11 65 16 90 6 25 8 48 6 52 -7 12 -20 10 -32 -4z"/>
<path d="M294 456 c-7 -18 24 -66 42 -66 24 0 26 20 4 50 -23 33 -38 38 -46
16z"/>
<path d="M480 375 c-5 -14 -10 -37 -10 -51 0 -13 -4 -32 -9 -42 -5 -9 -18 -37
-29 -62 -12 -25 -33 -57 -47 -70 -23 -22 -36 -25 -108 -26 -82 -2 -101 -10
-72 -34 11 -9 38 -11 91 -8 71 5 77 7 115 44 54 53 98 145 101 213 3 60 -15
81 -32 36z"/>
<path d="M33 375 c-9 -24 2 -28 72 -28 72 0 84 5 65 28 -18 21 -128 21 -137 0z"/>
<path d="M100 285 c-14 -17 -5 -35 17 -35 9 0 27 -10 40 -22 19 -17 26 -19 36
-9 9 10 4 19 -25 47 -42 38 -50 40 -68 19z"/>
</g>
</svg>
